<svg width="32" height="32" viewBox="0 0 32 32" fill="none" xmlns="http://www.w3.org/2000/svg">
<path d="M16 22.6663C19.6818 22.6663 22.6666 19.6815 22.6666 15.9997C22.6666 12.3178 19.6818 9.33301 16 9.33301C12.3181 9.33301 9.33331 12.3178 9.33331 15.9997C9.33331 19.6815 12.3181 22.6663 16 22.6663Z" stroke="#EDEDED" stroke-width="2" stroke-linecap="round" stroke-linejoin="round"/>
<path d="M1 22.6667V9.33333C1 4.73097 4.73097 1 9.33333 1H22.6667C27.269 1 31 4.73097 31 9.33333V22.6667C31 27.269 27.269 31 22.6667 31H9.33333C4.73097 31 1 27.269 1 22.6667Z" stroke="#EDEDED" stroke-width="2"/>
<path d="M25.1666 6.85055L25.1833 6.83203" stroke="#EDEDED" stroke-width="2" stroke-linecap="round" stroke-linejoin="round"/>
</svg>
